<svg width="100" height="100" viewBox="0 0 100 100" fill="none" xmlns="http://www.w3.org/2000/svg">
<path fill-rule="evenodd" clip-rule="evenodd" d="M83.3331 12.5H16.6664C14.1389 12.5 12.1935 14.7322 12.5388 17.236L20.8722 77.6527C21.0888 79.2233 22.178 80.5348 23.6821 81.0362L48.6821 89.3695C49.5374 89.6546 50.4621 89.6546 51.3174 89.3695L76.3174 81.0362C77.8215 80.5348 78.9107 79.2233 79.1273 77.6527L87.4607 17.236C87.806 14.7322 85.8606 12.5 83.3331 12.5ZM78.5498 20.8333L71.2248 73.9458L49.9998 81.025L28.7706 73.9458L21.4456 20.8333H78.5498ZM67.6851 36.1185C70.0613 33.5157 68.2548 29.1667 64.5831 29.1667H35.4164L34.9305 29.1947C32.8583 29.4354 31.2498 31.1965 31.2498 33.3333L31.2778 33.8193C31.5185 35.8915 33.2796 37.5 35.4164 37.5H53.6206L43.0649 46.8858L42.7311 47.2149C40.3549 49.8176 42.1614 54.1667 45.8331 54.1667H57.6956L56.6664 61.3542L49.9998 63.3583L43.1539 61.3042L43.1294 61.2119C42.487 59.2271 40.4446 57.9952 38.3493 58.4142C36.0928 58.8655 34.6294 61.0607 35.0807 63.3172L35.4973 65.4005L35.6274 65.8926C36.0508 67.1727 37.0743 68.1808 38.3858 68.5743L48.8025 71.6993L49.2764 71.8117C49.9144 71.9242 50.5722 71.8867 51.197 71.6993L61.6137 68.5743L62.1162 68.3877C63.4116 67.8092 64.3371 66.6014 64.5412 65.1726L66.6245 50.5893L66.6652 50.1222C66.7374 47.8072 64.8769 45.8333 62.4998 45.8333H56.7873L67.3513 36.4475L67.6851 36.1185Z" fill="white"/>
</svg>
